<svg width="11" height="12" viewBox="0 0 11 12" fill="none" xmlns="http://www.w3.org/2000/svg">
<path d="M4.35693 9.5C4.35693 9.776 4.13293 10 3.85693 10C3.58093 10 3.35693 9.776 3.35693 9.5V4.5C3.35693 4.224 3.58093 4 3.85693 4C4.13293 4 4.35693 4.224 4.35693 4.5V9.5ZM6.35693 9.5C6.35693 9.776 6.13293 10 5.85693 10C5.58093 10 5.35693 9.776 5.35693 9.5V4.5C5.35693 4.224 5.58093 4 5.85693 4C6.13293 4 6.35693 4.224 6.35693 4.5V9.5ZM8.35693 9.5C8.35693 9.776 8.13293 10 7.85693 10C7.58093 10 7.35693 9.776 7.35693 9.5V4.5C7.35693 4.224 7.58093 4 7.85693 4C8.13293 4 8.35693 4.224 8.35693 4.5V9.5ZM10.8569 1V2H0.856934V1H3.71243C4.16243 1 4.52793 0.4505 4.52793 0H7.18543C7.18543 0.4505 7.55043 1 8.00093 1H10.8569ZM9.35693 3V11H2.35693V3H1.35693V12H10.3569V3H9.35693Z" fill="white"/>
</svg>
