<svg width="104" height="28" viewBox="0 0 104 28" fill="none" xmlns="http://www.w3.org/2000/svg">
<path d="M26.72 13.986C26.72 15.894 26.402 17.664 25.766 19.296C25.142 20.916 24.254 22.32 23.102 23.508C21.95 24.696 20.564 25.626 18.944 26.298C17.324 26.958 15.524 27.288 13.544 27.288C11.576 27.288 9.782 26.958 8.162 26.298C6.542 25.626 5.15 24.696 3.986 23.508C2.834 22.32 1.94 20.916 1.304 19.296C0.668 17.664 0.35 15.894 0.35 13.986C0.35 12.078 0.668 10.314 1.304 8.694C1.94 7.062 2.834 5.652 3.986 4.464C5.15 3.276 6.542 2.352 8.162 1.692C9.782 1.02 11.576 0.684 13.544 0.684C14.864 0.684 16.106 0.839999 17.27 1.152C18.434 1.452 19.502 1.884 20.474 2.448C21.446 3 22.316 3.678 23.084 4.482C23.864 5.274 24.524 6.162 25.064 7.146C25.604 8.13 26.012 9.198 26.288 10.35C26.576 11.502 26.72 12.714 26.72 13.986ZM21.77 13.986C21.77 12.558 21.578 11.28 21.194 10.152C20.81 9.012 20.264 8.046 19.556 7.254C18.848 6.462 17.984 5.856 16.964 5.436C15.956 5.016 14.816 4.806 13.544 4.806C12.272 4.806 11.126 5.016 10.106 5.436C9.098 5.856 8.234 6.462 7.514 7.254C6.806 8.046 6.26 9.012 5.876 10.152C5.492 11.28 5.3 12.558 5.3 13.986C5.3 15.414 5.492 16.698 5.876 17.838C6.26 18.966 6.806 19.926 7.514 20.718C8.234 21.498 9.098 22.098 10.106 22.518C11.126 22.938 12.272 23.148 13.544 23.148C14.816 23.148 15.956 22.938 16.964 22.518C17.984 22.098 18.848 21.498 19.556 20.718C20.264 19.926 20.81 18.966 21.194 17.838C21.578 16.698 21.77 15.414 21.77 13.986ZM36.2718 10.8C36.6438 10.428 37.0338 10.086 37.4418 9.774C37.8618 9.45 38.2998 9.18 38.7558 8.964C39.2238 8.736 39.7218 8.562 40.2498 8.442C40.7778 8.31 41.3538 8.244 41.9778 8.244C42.9858 8.244 43.8798 8.418 44.6598 8.766C45.4398 9.102 46.0878 9.582 46.6038 10.206C47.1318 10.818 47.5278 11.556 47.7918 12.42C48.0678 13.272 48.2058 14.214 48.2058 15.246V27H43.7598V15.246C43.7598 14.118 43.5018 13.248 42.9858 12.636C42.4698 12.012 41.6838 11.7 40.6278 11.7C39.8598 11.7 39.1398 11.874 38.4678 12.222C37.7958 12.57 37.1598 13.044 36.5598 13.644V27H32.1138V8.532H34.8318C35.4078 8.532 35.7858 8.802 35.9658 9.342L36.2718 10.8ZM60.504 27.288C58.896 27.288 57.66 26.838 56.796 25.938C55.944 25.026 55.518 23.772 55.518 22.176V11.862H53.628C53.388 11.862 53.184 11.784 53.016 11.628C52.848 11.472 52.764 11.238 52.764 10.926V9.162L55.734 8.676L56.67 3.636C56.73 3.396 56.844 3.21 57.012 3.078C57.18 2.946 57.396 2.88 57.66 2.88H59.964V8.694H64.896V11.862H59.964V21.87C59.964 22.446 60.102 22.896 60.378 23.22C60.666 23.544 61.056 23.706 61.548 23.706C61.824 23.706 62.052 23.676 62.232 23.616C62.424 23.544 62.586 23.472 62.718 23.4C62.862 23.328 62.988 23.262 63.096 23.202C63.204 23.13 63.312 23.094 63.42 23.094C63.552 23.094 63.66 23.13 63.744 23.202C63.828 23.262 63.918 23.358 64.014 23.49L65.346 25.65C64.698 26.19 63.954 26.598 63.114 26.874C62.274 27.15 61.404 27.288 60.504 27.288ZM81.6599 15.642C81.6599 15.066 81.5759 14.526 81.4079 14.022C81.2519 13.506 81.0119 13.056 80.6879 12.672C80.3639 12.288 79.9499 11.988 79.4459 11.772C78.9539 11.544 78.3779 11.43 77.7179 11.43C76.4339 11.43 75.4199 11.796 74.6759 12.528C73.9439 13.26 73.4759 14.298 73.2719 15.642H81.6599ZM73.1819 18.324C73.2539 19.272 73.4219 20.094 73.6859 20.79C73.9499 21.474 74.2979 22.044 74.7299 22.5C75.1619 22.944 75.6719 23.28 76.2599 23.508C76.8599 23.724 77.5199 23.832 78.2399 23.832C78.9599 23.832 79.5779 23.748 80.0939 23.58C80.6219 23.412 81.0779 23.226 81.4619 23.022C81.8579 22.818 82.1999 22.632 82.4879 22.464C82.7879 22.296 83.0759 22.212 83.3519 22.212C83.7239 22.212 83.9999 22.35 84.1799 22.626L85.4579 24.246C84.9659 24.822 84.4139 25.308 83.8019 25.704C83.1899 26.088 82.5479 26.4 81.8759 26.64C81.2159 26.868 80.5379 27.03 79.8419 27.126C79.1579 27.222 78.4919 27.27 77.8439 27.27C76.5599 27.27 75.3659 27.06 74.2619 26.64C73.1579 26.208 72.1979 25.578 71.3819 24.75C70.5659 23.91 69.9239 22.878 69.4559 21.654C68.9879 20.418 68.7539 18.99 68.7539 17.37C68.7539 16.11 68.9579 14.928 69.3659 13.824C69.7739 12.708 70.3559 11.742 71.1119 10.926C71.8799 10.098 72.8099 9.444 73.9019 8.964C75.0059 8.484 76.2479 8.244 77.6279 8.244C78.7919 8.244 79.8659 8.43 80.8499 8.802C81.8339 9.174 82.6799 9.72 83.3879 10.44C84.0959 11.148 84.6479 12.024 85.0439 13.068C85.4519 14.1 85.6559 15.282 85.6559 16.614C85.6559 17.286 85.5839 17.742 85.4399 17.982C85.2959 18.21 85.0199 18.324 84.6119 18.324H73.1819ZM102.42 12.132C102.3 12.324 102.174 12.462 102.042 12.546C101.91 12.618 101.742 12.654 101.538 12.654C101.322 12.654 101.088 12.594 100.836 12.474C100.596 12.354 100.314 12.222 99.9904 12.078C99.6664 11.922 99.2944 11.784 98.8744 11.664C98.4664 11.544 97.9804 11.484 97.4164 11.484C96.5404 11.484 95.8504 11.67 95.3464 12.042C94.8544 12.414 94.6084 12.9 94.6084 13.5C94.6084 13.896 94.7344 14.232 94.9864 14.508C95.2504 14.772 95.5924 15.006 96.0124 15.21C96.4444 15.414 96.9304 15.6 97.4704 15.768C98.0104 15.924 98.5564 16.098 99.1084 16.29C99.6724 16.482 100.224 16.704 100.764 16.956C101.304 17.196 101.784 17.508 102.204 17.892C102.636 18.264 102.978 18.714 103.23 19.242C103.494 19.77 103.626 20.406 103.626 21.15C103.626 22.038 103.464 22.86 103.14 23.616C102.828 24.36 102.36 25.008 101.736 25.56C101.112 26.1 100.338 26.526 99.4144 26.838C98.5024 27.138 97.4464 27.288 96.2464 27.288C95.6104 27.288 94.9864 27.228 94.3744 27.108C93.7744 27 93.1924 26.844 92.6284 26.64C92.0764 26.436 91.5604 26.196 91.0804 25.92C90.6124 25.644 90.1984 25.344 89.8384 25.02L90.8644 23.328C90.9964 23.124 91.1524 22.968 91.3324 22.86C91.5124 22.752 91.7404 22.698 92.0164 22.698C92.2924 22.698 92.5504 22.776 92.7904 22.932C93.0424 23.088 93.3304 23.256 93.6544 23.436C93.9784 23.616 94.3564 23.784 94.7884 23.94C95.2324 24.096 95.7904 24.174 96.4624 24.174C96.9904 24.174 97.4404 24.114 97.8124 23.994C98.1964 23.862 98.5084 23.694 98.7484 23.49C99.0004 23.286 99.1804 23.052 99.2884 22.788C99.4084 22.512 99.4684 22.23 99.4684 21.942C99.4684 21.51 99.3364 21.156 99.0724 20.88C98.8204 20.604 98.4784 20.364 98.0464 20.16C97.6264 19.956 97.1404 19.776 96.5884 19.62C96.0484 19.452 95.4904 19.272 94.9144 19.08C94.3504 18.888 93.7924 18.666 93.2404 18.414C92.7004 18.15 92.2144 17.82 91.7824 17.424C91.3624 17.028 91.0204 16.542 90.7564 15.966C90.5044 15.39 90.3784 14.694 90.3784 13.878C90.3784 13.122 90.5284 12.402 90.8284 11.718C91.1284 11.034 91.5664 10.44 92.1424 9.936C92.7304 9.42 93.4564 9.012 94.3204 8.712C95.1964 8.4 96.2044 8.244 97.3444 8.244C98.6164 8.244 99.7744 8.454 100.818 8.874C101.862 9.294 102.732 9.846 103.428 10.53L102.42 12.132Z" fill="white"/>
</svg>
