<svg width="13" height="12" viewBox="0 0 13 12" fill="none" xmlns="http://www.w3.org/2000/svg">
<path d="M3.85693 11V3H11.8569V6.7715C11.8569 8.825 8.85693 8 8.85693 8C8.85693 8 9.61593 11 7.53793 11H3.85693ZM12.8569 7.193V2H2.85693V12H7.95143C9.53293 12 12.8569 8.3885 12.8569 7.193ZM7.85693 8H5.35693V7.5H7.85693V8ZM10.3569 6H5.35693V6.5H10.3569V6ZM10.3569 4.5H5.35693V5H10.3569V4.5ZM11.8569 1.5H2.35693V11H1.85693V1H11.8569V1.5ZM10.8569 0.5H1.35693V10H0.856934V0H10.8569V0.5Z" fill="white"/>
</svg>