<svg width="13" height="12" viewBox="0 0 13 12" fill="none" xmlns="http://www.w3.org/2000/svg">
<path d="M6.35693 3V7H9.85693V6H7.35693V3H6.35693ZM2.15693 7.6985L1.25743 8.1515C1.10643 7.7595 0.996934 7.348 0.931434 6.9215L1.93043 6.842C1.98043 7.137 2.05693 7.423 2.15693 7.6985ZM4.35343 11.449L4.68793 10.4995C4.41343 10.367 4.15393 10.211 3.91043 10.033L3.20393 10.7545C3.55793 11.027 3.94293 11.2605 4.35343 11.449ZM1.69393 9.0515C1.91393 9.422 2.17193 9.7665 2.46343 10.0805L3.16543 9.364C2.94993 9.1285 2.75843 8.873 2.59093 8.6L1.69393 9.0515ZM6.85493 0C5.45993 0 4.18043 0.482 3.16243 1.281L2.07093 0.1895L1.39293 3.696L4.90043 3.019L3.87543 1.9945C4.70843 1.372 5.73743 1 6.85493 1C9.61293 1 11.8564 3.243 11.8564 6C11.8564 8.757 9.61293 11 6.85493 11C6.43093 11 6.02093 10.941 5.62743 10.8415L5.29493 11.7885C5.79293 11.922 6.31443 12 6.85493 12C10.1694 12 12.8569 9.3135 12.8569 6C12.8569 2.6865 10.1694 0 6.85493 0V0ZM0.856934 5.9245L1.86443 5.844C1.87793 5.4925 1.92693 5.151 2.00843 4.8205H0.970434C0.899434 5.1775 0.861934 5.547 0.856934 5.9245H0.856934Z" fill="white"/>
</svg>